<?xml version="1.0" encoding="utf-8"?>
<!-- Generator: Adobe Illustrator 23.0.1, SVG Export Plug-In . SVG Version: 6.00 Build 0)  -->
<svg version="1.1" id="Layer_1" xmlns="http://www.w3.org/2000/svg" xmlns:xlink="http://www.w3.org/1999/xlink" x="0px" y="0px"
	 viewBox="0 0 288 108" style="enable-background:new 0 0 288 108;" xml:space="preserve">
<style type="text/css">
	.st0{fill:#F8991D;}
	.st1{fill:#221F1F;}
</style>
<g>
	<path id="path8" class="st0" d="M151.27,77.03c-12.76,9.41-31.26,14.43-47.19,14.43c-22.33,0-42.43-8.26-57.64-22
		c-1.19-1.08-0.12-2.55,1.31-1.71c16.41,9.55,36.71,15.3,57.67,15.3c14.14,0,29.69-2.93,43.99-9
		C151.58,73.13,153.38,75.46,151.27,77.03"/>
	<path id="path10" class="st0" d="M156.57,70.96c-1.63-2.08-10.78-0.98-14.89-0.5c-1.25,0.15-1.44-0.94-0.32-1.72
		c7.29-5.13,19.26-3.65,20.66-1.93c1.4,1.73-0.36,13.73-7.22,19.45c-1.05,0.88-2.06,0.41-1.59-0.76
		C154.76,81.67,158.21,73.06,156.57,70.96"/>
	<path id="path12" class="st1" d="M141.97,32.5v-4.99c0-0.76,0.57-1.26,1.26-1.26h22.34c0.72,0,1.29,0.52,1.29,1.26v4.27
		c-0.01,0.72-0.61,1.65-1.68,3.14L153.6,51.45c4.3-0.11,8.84,0.54,12.74,2.73c0.88,0.5,1.12,1.22,1.19,1.94v5.32
		c0,0.73-0.8,1.58-1.64,1.14c-6.87-3.6-16-4-23.6,0.04c-0.77,0.42-1.59-0.42-1.59-1.15v-5.06c0-0.81,0.01-2.2,0.82-3.43l13.41-19.23
		h-11.67C142.54,33.76,141.97,33.25,141.97,32.5"/>
	<path id="path14" class="st1" d="M60.47,63.64h-6.8c-0.65-0.05-1.17-0.54-1.21-1.16V27.6c0-0.7,0.58-1.25,1.31-1.25h6.34
		c0.66,0.03,1.19,0.54,1.23,1.17v4.56h0.12c1.65-4.41,4.76-6.46,8.95-6.46c4.25,0,6.91,2.06,8.82,6.46
		c1.64-4.41,5.38-6.46,9.39-6.46c2.85,0,5.97,1.18,7.87,3.81c2.15,2.93,1.71,7.2,1.71,10.94L98.2,62.38c0,0.7-0.58,1.26-1.31,1.26
		H90.1c-0.68-0.05-1.22-0.59-1.22-1.26V43.89c0-1.47,0.13-5.14-0.19-6.54c-0.51-2.34-2.03-3-4-3c-1.64,0-3.36,1.1-4.06,2.86
		c-0.7,1.76-0.63,4.7-0.63,6.68v18.49c0,0.7-0.58,1.26-1.31,1.26H71.9c-0.69-0.05-1.22-0.59-1.22-1.26l-0.01-18.49
		c0-3.89,0.64-9.62-4.19-9.62c-4.88,0-4.69,5.58-4.69,9.62v18.49C61.78,63.08,61.2,63.64,60.47,63.64"/>
	<path id="path16" class="st1" d="M223.75,25.61c10.09,0,15.54,8.66,15.54,19.67c0,10.64-6.03,19.08-15.54,19.08
		c-9.9,0-15.3-8.66-15.3-19.45C208.46,34.05,213.92,25.61,223.75,25.61 M223.81,32.73c-5.01,0-5.32,6.83-5.32,11.08
		c0,4.26-0.07,13.36,5.27,13.36c5.27,0,5.52-7.34,5.52-11.82c0-2.94-0.12-6.46-1.01-9.25C227.49,33.68,225.97,32.73,223.81,32.73"/>
	<path id="path16_1_" class="st1" d="M187.87,25.61c10.09,0,15.54,8.66,15.54,19.67c0,10.64-6.03,19.08-15.54,19.08
		c-9.9,0-15.3-8.66-15.3-19.45C172.57,34.05,178.03,25.61,187.87,25.61 M187.93,32.73c-5.01,0-5.32,6.83-5.32,11.08
		c0,4.26-0.07,13.36,5.27,13.36c5.27,0,5.52-7.34,5.52-11.82c0-2.94-0.12-6.46-1.01-9.25C191.61,33.68,190.09,32.73,187.93,32.73"/>
	<path id="path18" class="st1" d="M252.37,63.64h-6.77c-0.68-0.05-1.22-0.59-1.22-1.26l-0.01-34.89c0.06-0.64,0.62-1.14,1.31-1.14
		h6.3c0.59,0.03,1.08,0.43,1.21,0.98v5.33h0.12c1.9-4.77,4.57-7.05,9.26-7.05c3.05,0,6.02,1.1,7.93,4.11
		c1.78,2.79,1.78,7.49,1.78,10.86v21.96c-0.08,0.61-0.64,1.1-1.31,1.1h-6.82c-0.62-0.05-1.14-0.51-1.2-1.1V43.59
		c0-3.81,0.44-9.4-4.25-9.4c-1.65,0-3.17,1.11-3.93,2.79c-0.96,2.13-1.08,4.25-1.08,6.61v18.78
		C253.69,63.08,253.1,63.64,252.37,63.64"/>
	<g id="use28" transform="translate(244.36719)">
		<path id="path30" class="st1" d="M124.16,46.98V45.5c-4.91,0-10.1,1.05-10.1,6.84c0,2.93,1.52,4.92,4.13,4.92
			c1.91,0,3.62-1.18,4.7-3.09C124.23,51.83,124.16,49.62,124.16,46.98 M131.01,63.54c-0.45,0.4-1.1,0.43-1.61,0.16
			c-2.26-1.87-2.66-2.74-3.9-4.53c-3.73,3.8-6.37,4.94-11.2,4.94c-5.72,0-10.17-3.53-10.17-10.59c0-5.52,2.99-9.27,7.25-11.11
			c3.69-1.63,8.84-1.91,12.78-2.36v-0.88c0-1.62,0.12-3.53-0.82-4.92c-0.83-1.25-2.42-1.77-3.81-1.77c-2.59,0-4.9,1.33-5.47,4.08
			c-0.11,0.61-0.56,1.21-1.18,1.24l-6.6-0.71c-0.55-0.12-1.17-0.57-1.01-1.42c1.52-7.99,8.74-10.4,15.2-10.4
			c3.31,0,7.63,0.88,10.24,3.38c3.31,3.09,2.99,7.21,2.99,11.69v10.59c0,3.18,1.32,4.58,2.56,6.3c0.44,0.61,0.54,1.35-0.02,1.81
			c-1.39,1.16-3.85,3.31-5.21,4.51L131.01,63.54"/>
	</g>
	<path class="st1" d="M35.05,46.98V45.5c-4.91,0-10.1,1.05-10.1,6.84c0,2.93,1.52,4.92,4.13,4.92c1.91,0,3.62-1.18,4.7-3.09
		C35.12,51.83,35.05,49.62,35.05,46.98 M41.91,63.54c-0.45,0.4-1.1,0.43-1.61,0.16c-2.26-1.87-2.66-2.74-3.9-4.53
		c-3.73,3.8-6.37,4.94-11.2,4.94c-5.72,0-10.17-3.53-10.17-10.59c0-5.52,2.99-9.27,7.25-11.11c3.69-1.63,8.84-1.91,12.78-2.36v-0.88
		c0-1.62,0.12-3.53-0.82-4.92c-0.83-1.25-2.42-1.77-3.81-1.77c-2.59,0-4.9,1.33-5.47,4.08c-0.11,0.61-0.56,1.21-1.18,1.24l-6.6-0.71
		c-0.55-0.12-1.17-0.57-1.01-1.42c1.52-7.99,8.74-10.4,15.2-10.4c3.31,0,7.63,0.88,10.24,3.38c3.31,3.09,2.99,7.21,2.99,11.69v10.59
		c0,3.18,1.32,4.58,2.56,6.3c0.44,0.61,0.54,1.35-0.02,1.81c-1.39,1.16-3.85,3.31-5.21,4.51L41.91,63.54"/>
</g>
</svg>
