<?xml version="1.0" encoding="utf-8"?>
<!-- Generator: Adobe Illustrator 21.1.0, SVG Export Plug-In . SVG Version: 6.00 Build 0)  -->
<svg version="1.1" id="Layer_1" xmlns="http://www.w3.org/2000/svg" xmlns:xlink="http://www.w3.org/1999/xlink" x="0px" y="0px"
	 viewBox="0 0 288 108" style="enable-background:new 0 0 288 108;" xml:space="preserve">
<style type="text/css">
	.st0{fill:#F8991D;}
	.st1{fill:#FFFFFF;}
</style>
<g>
	<path id="path8" class="st0" d="M151.3,77c-12.8,9.4-31.3,14.4-47.2,14.4c-22.3,0-42.4-8.3-57.6-22c-1.2-1.1-0.1-2.6,1.3-1.7
		c16.4,9.6,36.7,15.3,57.7,15.3c14.1,0,29.7-2.9,44-9C151.6,73.1,153.4,75.5,151.3,77"/>
	<path id="path10" class="st0" d="M156.6,71c-1.6-2.1-10.8-1-14.9-0.5c-1.2,0.2-1.4-0.9-0.3-1.7c7.3-5.1,19.3-3.7,20.7-1.9
		c1.4,1.7-0.4,13.7-7.2,19.4c-1.1,0.9-2.1,0.4-1.6-0.8C154.8,81.7,158.2,73.1,156.6,71"/>
	<path id="path12" class="st0" d="M142,32.5v-5c0-0.8,0.6-1.3,1.3-1.3h22.3c0.7,0,1.3,0.5,1.3,1.3v4.3c0,0.7-0.6,1.6-1.7,3.1
		l-11.6,16.5c4.3-0.1,8.8,0.5,12.7,2.7c0.9,0.5,1.1,1.2,1.2,1.9v5.3c0,0.7-0.8,1.6-1.6,1.1c-6.9-3.6-16-4-23.6,0
		c-0.8,0.4-1.6-0.4-1.6-1.2v-5.1c0-0.8,0-2.2,0.8-3.4l13.4-19.2h-11.7C142.5,33.8,142,33.2,142,32.5"/>
	<path id="path14" class="st1" d="M60.5,63.6h-6.8c-0.7,0-1.2-0.5-1.2-1.2V27.6c0-0.7,0.6-1.2,1.3-1.2h6.3c0.7,0,1.2,0.5,1.2,1.2
		v4.6h0.1c1.7-4.4,4.8-6.5,9-6.5c4.2,0,6.9,2.1,8.8,6.5c1.6-4.4,5.4-6.5,9.4-6.5c2.8,0,6,1.2,7.9,3.8c2.2,2.9,1.7,7.2,1.7,10.9l0,22
		c0,0.7-0.6,1.3-1.3,1.3h-6.8c-0.7,0-1.2-0.6-1.2-1.3V43.9c0-1.5,0.1-5.1-0.2-6.5c-0.5-2.3-2-3-4-3c-1.6,0-3.4,1.1-4.1,2.9
		C79.9,39,80,41.9,80,43.9v18.5c0,0.7-0.6,1.3-1.3,1.3h-6.8c-0.7,0-1.2-0.6-1.2-1.3l0-18.5c0-3.9,0.6-9.6-4.2-9.6
		c-4.9,0-4.7,5.6-4.7,9.6v18.5C61.8,63.1,61.2,63.6,60.5,63.6"/>
	<path id="path16" class="st1" d="M223.8,25.6c10.1,0,15.5,8.7,15.5,19.7c0,10.6-6,19.1-15.5,19.1c-9.9,0-15.3-8.7-15.3-19.5
		C208.5,34,213.9,25.6,223.8,25.6 M223.8,32.7c-5,0-5.3,6.8-5.3,11.1c0,4.3-0.1,13.4,5.3,13.4c5.3,0,5.5-7.3,5.5-11.8
		c0-2.9-0.1-6.5-1-9.2C227.5,33.7,226,32.7,223.8,32.7"/>
	<path id="path16_1_" class="st1" d="M187.9,25.6c10.1,0,15.5,8.7,15.5,19.7c0,10.6-6,19.1-15.5,19.1c-9.9,0-15.3-8.7-15.3-19.5
		C172.6,34,178,25.6,187.9,25.6 M187.9,32.7c-5,0-5.3,6.8-5.3,11.1c0,4.3-0.1,13.4,5.3,13.4c5.3,0,5.5-7.3,5.5-11.8
		c0-2.9-0.1-6.5-1-9.2C191.6,33.7,190.1,32.7,187.9,32.7"/>
	<path id="path18" class="st1" d="M252.4,63.6h-6.8c-0.7,0-1.2-0.6-1.2-1.3l0-34.9c0.1-0.6,0.6-1.1,1.3-1.1h6.3c0.6,0,1.1,0.4,1.2,1
		v5.3h0.1c1.9-4.8,4.6-7,9.3-7c3,0,6,1.1,7.9,4.1c1.8,2.8,1.8,7.5,1.8,10.9v22c-0.1,0.6-0.6,1.1-1.3,1.1h-6.8
		c-0.6,0-1.1-0.5-1.2-1.1v-19c0-3.8,0.4-9.4-4.2-9.4c-1.6,0-3.2,1.1-3.9,2.8c-1,2.1-1.1,4.2-1.1,6.6v18.8
		C253.7,63.1,253.1,63.6,252.4,63.6"/>
	<g id="use28" transform="translate(244.36719)">
		<path id="path30" class="st1" d="M-120.2,47v-1.5c-4.9,0-10.1,1-10.1,6.8c0,2.9,1.5,4.9,4.1,4.9c1.9,0,3.6-1.2,4.7-3.1
			C-120.1,51.8-120.2,49.6-120.2,47 M-113.3,63.5c-0.4,0.4-1.1,0.4-1.6,0.2c-2.3-1.9-2.7-2.7-3.9-4.5c-3.7,3.8-6.4,4.9-11.2,4.9
			c-5.7,0-10.2-3.5-10.2-10.6c0-5.5,3-9.3,7.2-11.1c3.7-1.6,8.8-1.9,12.8-2.4v-0.9c0-1.6,0.1-3.5-0.8-4.9c-0.8-1.2-2.4-1.8-3.8-1.8
			c-2.6,0-4.9,1.3-5.5,4.1c-0.1,0.6-0.6,1.2-1.2,1.2l-6.6-0.7c-0.6-0.1-1.2-0.6-1-1.4c1.5-8,8.7-10.4,15.2-10.4
			c3.3,0,7.6,0.9,10.2,3.4c3.3,3.1,3,7.2,3,11.7v10.6c0,3.2,1.3,4.6,2.6,6.3c0.4,0.6,0.5,1.3,0,1.8
			C-109.5,60.2-111.9,62.4-113.3,63.5L-113.3,63.5"/>
	</g>
	<path class="st0" d="M35,47v-1.5c-4.9,0-10.1,1-10.1,6.8c0,2.9,1.5,4.9,4.1,4.9c1.9,0,3.6-1.2,4.7-3.1C35.1,51.8,35,49.6,35,47
		 M41.9,63.5c-0.5,0.4-1.1,0.4-1.6,0.2c-2.3-1.9-2.7-2.7-3.9-4.5c-3.7,3.8-6.4,4.9-11.2,4.9c-5.7,0-10.2-3.5-10.2-10.6
		c0-5.5,3-9.3,7.2-11.1c3.7-1.6,8.8-1.9,12.8-2.4v-0.9c0-1.6,0.1-3.5-0.8-4.9c-0.8-1.2-2.4-1.8-3.8-1.8c-2.6,0-4.9,1.3-5.5,4.1
		c-0.1,0.6-0.6,1.2-1.2,1.2l-6.6-0.7c-0.5-0.1-1.2-0.6-1-1.4c1.5-8,8.7-10.4,15.2-10.4c3.3,0,7.6,0.9,10.2,3.4c3.3,3.1,3,7.2,3,11.7
		v10.6c0,3.2,1.3,4.6,2.6,6.3c0.4,0.6,0.5,1.3,0,1.8C45.8,60.2,43.3,62.4,41.9,63.5L41.9,63.5"/>
</g>
</svg>
